<svg width="611" height="607" viewBox="0 0 611 607" fill="none" xmlns="http://www.w3.org/2000/svg">
<path d="M561.667 309.713C561.667 167.408 446.231 52.0464 303.834 52.0464C161.436 52.0464 46 167.408 46 309.713C46 452.018 161.436 567.379 303.834 567.379C446.231 567.379 561.667 452.018 561.667 309.713Z" fill="#0015FF" fill-opacity="0.2"/>
<g filter="url(#filter0_f_210_122)">
<ellipse cx="305.624" cy="303.022" rx="255.148" ry="253.022" fill="#0015FF" fill-opacity="0.2"/>
</g>
<g filter="url(#filter1_i_210_122)">
<path fill-rule="evenodd" clip-rule="evenodd" d="M258.635 392.335C295.391 411.219 336.608 409.121 368.901 392.334V433.703L369.266 433.693V457.982H258.635V392.335Z" fill="#BB7D52"/>
<path fill-rule="evenodd" clip-rule="evenodd" d="M258.635 426.804C295.39 445.689 336.607 443.591 368.901 426.804V453.185L393.734 452.589L394.042 452.6C394.042 516.187 236.326 525.706 236.326 452.504L236.942 452.478L258.635 452.584V426.804V426.804Z" fill="#D08B5B"/>
<path fill-rule="evenodd" clip-rule="evenodd" d="M194.067 165.472C281.781 111.64 393.996 130.783 431.909 166.281C442.87 191.704 443.645 216.227 440.42 242.549C447.825 237.428 454.5 241.523 456.5 244.897C458 247.427 462.5 296.946 429.5 310.751C429.5 449.238 215.5 470.925 199.5 310.751C168 295.018 166.5 255.017 170 249.716C173.815 243.937 181.801 242.078 187.487 244.71L194.067 165.472Z" fill="#D08B5B"/>
<path fill-rule="evenodd" clip-rule="evenodd" d="M283.419 78.7868L276.164 83.3346L272.478 79.896C266.72 74.4617 263.956 75.4599 259.58 84.4437C256.931 89.989 253.592 90.6549 247.834 86.9944C245.53 85.4419 242.651 84.1108 241.5 84.1108C238.966 84.1108 236.547 87.8816 235.511 92.8726C234.705 96.9764 231.941 100.747 229.638 100.747C228.832 100.747 225.837 99.749 222.958 98.5289C218.581 96.6435 217.2 96.5325 214.781 97.5307C212.017 98.7508 211.787 99.4161 211.787 106.736C211.787 112.06 210.981 116.164 209.484 119.27C207.296 123.928 207.18 124.039 201.768 124.039C192.785 124.039 188.524 128.364 192.9 133.134C195.204 135.462 193.706 137.903 189.215 138.901C180.923 140.897 178.505 145.999 182.996 151.433C186.106 155.315 185.991 155.87 181.038 158.089C175.856 160.528 175.05 163.302 178.39 166.739C180.923 169.402 180.923 169.512 179.541 184.153C178.16 198.349 183.388 243.203 185 247.306C185.5 254.535 189.446 242.715 190.367 224.082C191.058 208.111 193.246 194.58 195.78 189.921C198.659 184.708 221.461 173.506 244.034 166.186C272.019 157.203 303.458 153.764 338.929 156.093C369.332 157.979 386.759 163.706 420.387 181.119C433 188.992 430.5 187.546 431 188.992C431.5 190.438 435.822 246.585 440.5 242.487C443.5 246.343 442.576 159.198 437.969 150.437C434.515 144.004 434.284 141.564 436.242 134.909C437.624 130.251 437.624 129.252 435.897 126.813C434.284 124.483 433.132 124.04 428.526 124.04C425.532 124.151 420.925 124.594 418.277 125.038C413.555 125.925 413.44 125.925 414.016 123.042C416.319 112.173 413.555 109.732 402.384 112.505C398.814 113.392 395.474 113.947 395.243 113.614C394.898 113.282 395.243 109.954 396.05 106.294C397.431 100.305 397.317 99.307 395.704 97.6429C393.977 96.0904 392.94 96.0904 386.261 97.3106C375.551 99.418 371.52 98.4198 367.604 92.6519C363.574 86.9957 359.888 84.9993 356.088 86.4408C354.015 87.217 351.827 86.8847 347.681 85.1103C343.304 83.3358 340.771 82.8919 336.855 83.4462C332.825 84.1121 330.636 83.6681 326.836 81.7827C322.921 79.8973 320.732 79.5643 316.011 80.1186C310.944 80.6735 309.101 80.2296 303.228 77.457C299.543 75.6825 295.166 74.2404 293.554 74.1294C291.942 74.1294 287.45 76.2368 283.42 78.7881L283.419 78.7868Z" fill="#1C1C1C"/>
<path fill-rule="evenodd" clip-rule="evenodd" d="M237.881 247.114C232.822 248.921 227 253.475 227 255.644C227 257.307 228.527 257.307 231.486 255.5C239.217 250.873 255.633 250.873 264.032 255.427C265.655 256.223 267.373 256.945 267.946 256.945C269.95 256.945 268.995 254.343 265.942 251.595C261.933 247.836 254.775 245.379 247.998 245.379C244.466 245.379 241.126 245.957 237.881 247.114Z" fill="#1C1C1C"/>
<path fill-rule="evenodd" clip-rule="evenodd" d="M371.881 247.114C366.822 248.921 361 253.475 361 255.644C361 257.307 362.527 257.307 365.486 255.5C373.217 250.873 389.633 250.873 398.032 255.427C399.655 256.223 401.373 256.945 401.946 256.945C403.95 256.945 402.995 254.343 399.942 251.595C395.933 247.836 388.775 245.379 381.998 245.379C378.466 245.379 375.126 245.957 371.881 247.114Z" fill="#1C1C1C"/>
<path fill-rule="evenodd" clip-rule="evenodd" d="M229.69 219.065C220.536 221.776 210 228.608 210 231.861C210 234.355 212.764 234.355 218.118 231.644C232.107 224.704 261.813 224.704 277.011 231.535C279.946 232.728 283.055 233.812 284.092 233.812C287.719 233.812 285.992 229.908 280.466 225.788C273.212 220.149 260.259 216.462 247.996 216.462C241.606 216.462 235.561 217.33 229.69 219.065V219.065V219.065Z" fill="#1C1C1C"/>
<path fill-rule="evenodd" clip-rule="evenodd" d="M363.69 219.065C354.536 221.776 344 228.608 344 231.861C344 234.355 346.764 234.355 352.118 231.644C366.107 224.704 395.813 224.704 411.011 231.535C413.946 232.728 417.055 233.812 418.092 233.812C421.719 233.812 419.992 229.908 414.466 225.788C407.212 220.149 394.259 216.462 381.996 216.462C375.606 216.462 369.561 217.33 363.69 219.065V219.065V219.065Z" fill="#1C1C1C"/>
<path fill-rule="evenodd" clip-rule="evenodd" d="M288.256 301.065C289.523 305.834 293.208 309.605 299.657 312.6C304.84 315.04 307.488 315.594 315.089 315.594C322.689 315.594 325.339 315.04 330.521 312.6C336.97 309.605 340.655 305.834 341.922 301.065L342.498 298.625H315.089H287.68L288.256 301.065V301.065Z" fill="#AF754C"/>
<path fill-rule="evenodd" clip-rule="evenodd" d="M282.958 345.651C284.455 354.856 291.711 364.284 300.694 368.72C307.258 372.048 319.35 372.713 326.26 370.162C336.625 366.281 345.608 355.855 347.22 345.651H282.958V345.651Z" fill="white"/>
<path fill-rule="evenodd" clip-rule="evenodd" d="M281.974 322.531C280.22 323.145 275.915 325.141 272.407 327.061C268.899 328.903 264.913 330.9 263.558 331.437C260.768 332.512 252.557 332.819 249.926 331.975C248.411 331.513 248.092 331.667 248.092 333.125C248.092 335.506 253.275 339.959 258.935 342.57C266.269 345.948 275.835 345.257 287.794 340.421C292.41 339.11 299.087 335.6 304.455 333.817C316.283 329.79 322.325 332.101 332.996 336.505L342.323 340.421C354.282 345.257 363.848 345.948 371.183 342.57C376.922 339.959 382.264 335.276 381.866 333.279C381.706 332.512 380.988 332.052 380.351 332.205C379.713 332.359 376.763 332.435 373.734 332.435C368.95 332.358 367.515 331.975 361.776 329.134C346.23 321.303 348.462 321.917 336.982 321.917C327.814 321.917 325.98 322.223 320.879 323.99L315.058 325.985L309.318 323.99C302.303 321.609 287.395 320.842 281.974 322.531Z" fill="#1C1C1C" fill-opacity="0.9"/>
<path fill-rule="evenodd" clip-rule="evenodd" d="M235.931 452.09C201.967 455.538 189.176 455.509 163.5 477.5C141.406 496.343 151.176 488.172 135 509.5C192 559.5 281.988 568.5 316.529 568.5C351.072 568.5 450 545.871 483.5 495C483.5 495 495.206 490.807 454.35 469.802C437.194 460.887 417.044 454.468 401.616 452.803L394.35 452.121L394.005 452.113L393.211 457.796C389.758 484.899 357.174 504.87 316.529 504.87C275.886 504.87 243.878 485.137 239.732 457.678C238.927 452.21 238.581 451.734 235.933 452.09H235.931Z" fill="#090E16"/>
<path fill-rule="evenodd" clip-rule="evenodd" d="M256.698 407.9L256.218 407.755C254.905 407.357 261.355 404.52 263.641 403.466C270.36 400.372 279.123 401.004 290.077 405.435C294.306 406.636 300.422 409.851 305.34 411.484C316.174 415.174 321.709 413.056 331.484 409.023L340.029 405.435C350.983 401.004 359.746 400.372 366.465 403.466C368.718 404.491 370.943 405.822 372.637 407.244L373.147 407.671C353.539 422.076 290.686 429.238 256.698 407.9Z" fill="#1C1C1C" fill-opacity="0.9"/>
</g>
<defs>
<filter id="filter0_f_210_122" x="0.476257" y="0" width="610.296" height="606.043" filterUnits="userSpaceOnUse" color-interpolation-filters="sRGB">
<feFlood flood-opacity="0" result="BackgroundImageFix"/>
<feBlend mode="normal" in="SourceGraphic" in2="BackgroundImageFix" result="shape"/>
<feGaussianBlur stdDeviation="25" result="effect1_foregroundBlur_210_122"/>
</filter>
<filter id="filter1_i_210_122" x="135" y="74.1294" width="350.053" height="498.371" filterUnits="userSpaceOnUse" color-interpolation-filters="sRGB">
<feFlood flood-opacity="0" result="BackgroundImageFix"/>
<feBlend mode="normal" in="SourceGraphic" in2="BackgroundImageFix" result="shape"/>
<feColorMatrix in="SourceAlpha" type="matrix" values="0 0 0 0 0 0 0 0 0 0 0 0 0 0 0 0 0 0 127 0" result="hardAlpha"/>
<feOffset dy="4"/>
<feGaussianBlur stdDeviation="2"/>
<feComposite in2="hardAlpha" operator="arithmetic" k2="-1" k3="1"/>
<feColorMatrix type="matrix" values="0 0 0 0 0 0 0 0 0 0 0 0 0 0 0 0 0 0 0.25 0"/>
<feBlend mode="normal" in2="shape" result="effect1_innerShadow_210_122"/>
</filter>
</defs>
</svg>
