<svg width="695" height="650" viewBox="0 0 695 650" fill="none" xmlns="http://www.w3.org/2000/svg">
<path d="M608.667 309.713C608.667 167.408 493.231 52.0464 350.834 52.0464C208.436 52.0464 93 167.408 93 309.713C93 452.018 208.436 567.379 350.834 567.379C493.231 567.379 608.667 452.018 608.667 309.713Z" fill="#0015FF" fill-opacity="0.2"/>
<g filter="url(#filter0_d_1_40)">
<circle cx="572.81" cy="433.81" r="35.8102" fill="#090E16"/>
</g>
<g clip-path="url(#clip0_1_40)">
<path fill-rule="evenodd" clip-rule="evenodd" d="M587.918 415.905H557.703C556.158 415.905 554.905 417.158 554.905 418.703V448.918C554.905 450.463 556.158 451.715 557.703 451.715H587.918C589.463 451.715 590.715 450.463 590.715 448.918V418.703C590.715 417.158 589.463 415.905 587.918 415.905ZM575.96 447.812V443.948C576.661 444.536 577.422 444.977 578.244 445.27C579.066 445.564 579.895 445.711 580.733 445.711C581.225 445.711 581.654 445.667 582.02 445.578C582.387 445.49 582.693 445.367 582.939 445.21C583.184 445.053 583.368 444.868 583.488 444.655C583.609 444.441 583.67 444.21 583.67 443.96C583.67 443.622 583.573 443.32 583.38 443.055C583.186 442.789 582.922 442.544 582.588 442.318C582.254 442.093 581.857 441.876 581.398 441.667C580.939 441.457 580.443 441.244 579.912 441.027C578.558 440.463 577.549 439.775 576.885 438.962C576.22 438.149 575.888 437.167 575.888 436.016C575.888 435.114 576.069 434.34 576.432 433.692C576.794 433.044 577.288 432.511 577.912 432.092C578.536 431.674 579.259 431.366 580.081 431.169C580.903 430.971 581.772 430.873 582.691 430.873C583.593 430.873 584.393 430.927 585.089 431.036C585.786 431.144 586.429 431.311 587.017 431.537V435.147C586.727 434.946 586.41 434.768 586.068 434.616C585.726 434.463 585.373 434.336 585.011 434.235C584.648 434.134 584.288 434.06 583.929 434.012C583.571 433.964 583.231 433.939 582.908 433.939C582.465 433.939 582.062 433.982 581.7 434.066C581.337 434.151 581.031 434.269 580.782 434.422C580.532 434.575 580.339 434.758 580.202 434.972C580.065 435.185 579.996 435.424 579.996 435.69C579.996 435.98 580.073 436.239 580.226 436.469C580.379 436.698 580.596 436.916 580.878 437.121C581.16 437.326 581.503 437.527 581.905 437.724C582.308 437.922 582.763 438.125 583.271 438.334C583.964 438.624 584.586 438.932 585.138 439.258C585.689 439.584 586.163 439.952 586.557 440.363C586.952 440.773 587.254 441.242 587.464 441.769C587.673 442.296 587.778 442.91 587.778 443.61C587.778 444.576 587.595 445.387 587.228 446.043C586.862 446.699 586.364 447.23 585.736 447.637C585.108 448.043 584.376 448.335 583.543 448.512C582.709 448.689 581.829 448.778 580.903 448.778C579.952 448.778 579.048 448.697 578.19 448.536C577.332 448.375 576.589 448.134 575.96 447.812ZM574.489 434.334H569.521V448.498H565.585V434.334H560.641V431.152H574.489V434.334Z" fill="#0015FF" fill-opacity="0.5"/>
</g>
<g filter="url(#filter1_d_1_40)">
<circle cx="132.81" cy="167.81" r="35.8102" fill="#090E16"/>
</g>
<path d="M146.207 161.512C145.79 161.368 145.357 161.232 144.912 161.104C144.985 160.805 145.052 160.51 145.112 160.22C146.093 155.459 145.451 151.624 143.262 150.361C141.162 149.15 137.728 150.412 134.26 153.431C133.926 153.721 133.592 154.028 133.258 154.35C133.035 154.137 132.813 153.931 132.591 153.734C128.956 150.507 125.313 149.147 123.125 150.413C121.028 151.628 120.406 155.233 121.289 159.745C121.374 160.181 121.474 160.626 121.587 161.079C121.071 161.225 120.573 161.381 120.097 161.547C115.836 163.033 113.115 165.361 113.115 167.776C113.115 170.271 116.036 172.773 120.474 174.29C120.825 174.409 121.188 174.523 121.563 174.63C121.441 175.119 121.335 175.599 121.247 176.067C120.405 180.5 121.062 184.021 123.154 185.228C125.315 186.474 128.942 185.193 132.473 182.106C132.753 181.862 133.033 181.603 133.313 181.332C133.677 181.682 134.04 182.014 134.401 182.324C137.822 185.268 141.2 186.457 143.291 185.247C145.449 183.997 146.151 180.215 145.24 175.614C145.171 175.262 145.09 174.903 144.999 174.538C145.253 174.463 145.503 174.385 145.747 174.304C150.361 172.775 153.364 170.304 153.364 167.776C153.364 165.352 150.554 163.008 146.207 161.512ZM145.207 172.672C144.986 172.745 144.761 172.815 144.53 172.884C144.021 171.271 143.334 169.556 142.492 167.785C143.295 166.055 143.956 164.362 144.451 162.76C144.863 162.879 145.263 163.005 145.648 163.138C149.372 164.42 151.644 166.316 151.644 167.776C151.644 169.332 149.191 171.352 145.207 172.672ZM143.553 175.948C143.956 177.982 144.014 179.822 143.747 181.26C143.507 182.552 143.025 183.414 142.429 183.759C141.161 184.493 138.448 183.538 135.523 181.021C135.187 180.732 134.85 180.424 134.511 180.098C135.645 178.858 136.778 177.416 137.884 175.815C139.83 175.642 141.669 175.36 143.336 174.974C143.418 175.305 143.491 175.63 143.553 175.948ZM126.836 183.632C125.597 184.069 124.61 184.082 124.013 183.738C122.744 183.006 122.216 180.179 122.936 176.387C123.018 175.953 123.117 175.507 123.23 175.051C124.878 175.416 126.703 175.678 128.654 175.836C129.767 177.403 130.934 178.844 132.109 180.105C131.852 180.353 131.596 180.589 131.342 180.811C129.78 182.176 128.215 183.145 126.836 183.632ZM121.03 172.663C119.068 171.992 117.447 171.12 116.336 170.169C115.338 169.314 114.834 168.465 114.834 167.776C114.834 166.311 117.019 164.441 120.663 163.171C121.105 163.017 121.568 162.871 122.049 162.735C122.552 164.373 123.213 166.086 124.01 167.818C123.203 169.576 122.533 171.316 122.024 172.974C121.681 172.875 121.35 172.772 121.03 172.663ZM122.977 159.415C122.22 155.549 122.723 152.633 123.987 151.902C125.333 151.122 128.311 152.234 131.449 155.02C131.65 155.198 131.851 155.385 132.053 155.577C130.884 156.833 129.728 158.263 128.624 159.82C126.731 159.996 124.919 160.278 123.253 160.655C123.149 160.234 123.056 159.82 122.977 159.415ZM140.338 163.702C139.94 163.014 139.531 162.343 139.114 161.689C140.399 161.852 141.629 162.067 142.784 162.331C142.437 163.443 142.005 164.605 141.496 165.797C141.131 165.104 140.745 164.405 140.338 163.702ZM133.258 156.806C134.051 157.665 134.846 158.625 135.627 159.666C134.84 159.628 134.043 159.609 133.239 159.609C132.443 159.609 131.652 159.628 130.87 159.665C131.652 158.633 132.453 157.675 133.258 156.806ZM126.133 163.714C125.735 164.404 125.356 165.099 124.997 165.795C124.496 164.608 124.068 163.44 123.718 162.313C124.866 162.056 126.091 161.846 127.367 161.686C126.944 162.346 126.532 163.022 126.133 163.714V163.714ZM127.403 173.989C126.085 173.842 124.842 173.643 123.694 173.393C124.049 172.245 124.487 171.052 124.999 169.839C125.359 170.535 125.739 171.231 126.14 171.922H126.14C126.547 172.626 126.97 173.316 127.403 173.989ZM133.306 178.868C132.491 177.988 131.678 177.016 130.884 175.97C131.655 176 132.44 176.015 133.239 176.015C134.059 176.015 134.87 175.997 135.669 175.961C134.885 177.026 134.094 178 133.306 178.868ZM141.513 169.778C142.051 171.004 142.504 172.19 142.864 173.318C141.697 173.584 140.437 173.799 139.11 173.958C139.527 173.296 139.94 172.613 140.345 171.91C140.755 171.199 141.144 170.487 141.513 169.778ZM138.856 171.051C138.227 172.142 137.581 173.183 136.925 174.166C135.731 174.252 134.497 174.296 133.239 174.296C131.986 174.296 130.768 174.257 129.595 174.181C128.913 173.185 128.253 172.14 127.628 171.061H127.628C127.004 169.984 126.43 168.898 125.91 167.818C126.43 166.735 127.003 165.648 127.623 164.573L127.622 164.573C128.244 163.495 128.898 162.456 129.574 161.466C130.771 161.376 131.998 161.328 133.239 161.328H133.239C134.485 161.328 135.714 161.376 136.911 161.467C137.576 162.45 138.226 163.486 138.85 164.564C139.481 165.654 140.061 166.734 140.585 167.793C140.062 168.871 139.484 169.962 138.856 171.051ZM142.403 151.85C143.751 152.628 144.275 155.762 143.428 159.873C143.374 160.135 143.313 160.402 143.247 160.673C141.577 160.288 139.764 160.001 137.865 159.823C136.759 158.248 135.613 156.816 134.463 155.577C134.772 155.279 135.081 154.995 135.389 154.728C138.36 152.142 141.137 151.121 142.403 151.85ZM133.239 164.182C135.224 164.182 136.833 165.791 136.833 167.776C136.833 169.761 135.224 171.37 133.239 171.37C131.254 171.37 129.645 169.761 129.645 167.776C129.645 165.791 131.254 164.182 133.239 164.182Z" fill="#0015FF" fill-opacity="0.5"/>
<g filter="url(#filter2_d_1_40)">
<circle cx="570.81" cy="167.81" r="35.8102" fill="#090E16"/>
</g>
<path d="M578.892 149.5L564.665 163.098L555.682 156.342L551.758 158.25V175.75L555.7 177.658L564.738 170.92L578.928 184.5L588.333 180.878V153L578.892 149.5ZM556.012 171.025V162.887L560.485 167.14L556.012 171.025ZM578.617 173.283L570.092 167L578.617 160.717V173.283Z" fill="#0015FF" fill-opacity="0.5"/>
<g filter="url(#filter3_d_1_40)">
<circle cx="128.81" cy="434.81" r="35.8102" fill="#090E16"/>
</g>
<path d="M129 416.932C124.845 416.932 120.825 418.411 117.66 421.103C114.495 423.796 112.392 427.527 111.726 431.629C111.06 435.731 111.876 439.936 114.027 443.491C116.178 447.046 119.524 449.721 123.466 451.035C124.341 451.188 124.669 450.663 124.669 450.204C124.669 449.788 124.647 448.41 124.647 446.944C120.25 447.754 119.113 445.872 118.763 444.888C118.374 443.931 117.759 443.082 116.969 442.416C116.356 442.088 115.481 441.279 116.947 441.257C117.507 441.317 118.043 441.512 118.512 441.824C118.98 442.137 119.366 442.557 119.638 443.05C119.877 443.48 120.199 443.859 120.585 444.164C120.971 444.47 121.413 444.696 121.886 444.83C122.36 444.964 122.855 445.004 123.344 444.946C123.833 444.888 124.305 444.735 124.734 444.494C124.81 443.605 125.207 442.773 125.85 442.154C121.956 441.716 117.888 440.207 117.888 433.513C117.863 431.774 118.505 430.091 119.681 428.81C119.146 427.298 119.209 425.639 119.856 424.172C119.856 424.172 121.322 423.713 124.669 425.966C127.532 425.179 130.555 425.179 133.419 425.966C136.766 423.691 138.231 424.172 138.231 424.172C138.879 425.639 138.941 427.298 138.406 428.81C139.586 430.089 140.229 431.773 140.2 433.513C140.2 440.229 136.109 441.716 132.216 442.154C132.633 442.577 132.955 443.085 133.159 443.644C133.363 444.202 133.444 444.798 133.397 445.391C133.397 447.732 133.375 449.613 133.375 450.204C133.375 450.663 133.703 451.21 134.578 451.035C138.513 449.71 141.85 447.03 143.991 443.472C146.133 439.915 146.941 435.712 146.271 431.615C145.6 427.517 143.496 423.791 140.332 421.101C137.169 418.412 133.152 416.934 129 416.932Z" fill="#0015FF" fill-opacity="0.5"/>
<g filter="url(#filter4_d_1_40)">
<circle cx="608.81" cy="300.81" r="35.8102" fill="#090E16"/>
</g>
<path d="M613.956 306.766C612.452 306.912 610.937 306.637 609.582 305.969C609.275 305.724 609.021 305.418 608.837 305.07C608.653 304.723 608.542 304.341 608.511 303.949C608.51 303.89 608.498 303.832 608.475 303.778C608.451 303.724 608.418 303.676 608.376 303.635C608.333 303.594 608.284 303.562 608.229 303.541C608.174 303.519 608.116 303.509 608.057 303.51C607.424 303.502 606.791 303.504 606.158 303.509C606.047 303.498 605.937 303.531 605.85 303.6C605.764 303.67 605.708 303.771 605.695 303.882C605.659 304.57 605.776 305.257 606.036 305.895C606.296 306.532 606.694 307.105 607.201 307.571C608.482 308.57 610.037 309.155 611.658 309.247C613.348 309.443 615.057 309.371 616.724 309.032C618.004 308.793 619.177 308.161 620.081 307.223C620.58 306.608 620.915 305.875 621.053 305.095C621.192 304.314 621.13 303.512 620.873 302.762C620.657 302.233 620.323 301.761 619.896 301.382C619.47 301.002 618.962 300.725 618.412 300.573C615.85 299.674 613.083 299.742 610.472 299.059C610.018 298.916 609.465 298.761 609.262 298.281C609.146 297.944 609.138 297.578 609.24 297.235C609.342 296.893 609.548 296.591 609.831 296.372C610.651 295.903 611.584 295.671 612.528 295.7C613.809 295.58 615.101 295.764 616.297 296.239C616.656 296.451 616.965 296.738 617.202 297.08C617.439 297.423 617.599 297.813 617.67 298.224C617.674 298.345 617.722 298.46 617.806 298.548C617.891 298.635 618.004 298.687 618.125 298.695C618.754 298.708 619.383 298.698 620.012 298.699C620.121 298.712 620.231 298.686 620.322 298.624C620.412 298.562 620.478 298.47 620.506 298.364C620.512 297.516 620.296 296.681 619.88 295.942C619.463 295.204 618.861 294.586 618.133 294.152C616.123 293.224 613.892 292.883 611.697 293.167V293.167C610.088 293.233 608.551 293.85 607.344 294.916C606.79 295.513 606.415 296.254 606.261 297.054C606.108 297.854 606.182 298.681 606.476 299.441C606.704 299.95 607.04 300.403 607.461 300.77C607.882 301.137 608.377 301.408 608.912 301.564C611.465 302.487 614.263 302.191 616.841 303.006C617.343 303.176 617.928 303.437 618.082 303.996C618.165 304.331 618.159 304.682 618.064 305.014C617.97 305.346 617.79 305.647 617.543 305.888C616.471 306.554 615.215 306.862 613.956 306.766ZM625.594 289.875C620.609 287.056 615.624 284.24 610.637 281.427C610.137 281.147 609.573 281 609 281C608.426 281 607.863 281.147 607.362 281.427C602.395 284.232 597.427 287.037 592.459 289.841C591.976 290.105 591.572 290.493 591.289 290.965C591.007 291.437 590.855 291.977 590.851 292.527V309.475C590.859 310.036 591.019 310.584 591.313 311.061C591.607 311.538 592.024 311.926 592.521 312.185C593.948 312.962 595.335 313.818 596.788 314.543C597.626 314.991 598.558 315.238 599.508 315.264C600.459 315.291 601.402 315.095 602.264 314.694C602.909 314.29 603.434 313.72 603.784 313.044C604.134 312.368 604.296 311.611 604.254 310.851C604.265 305.258 604.256 299.664 604.258 294.071C604.268 294.01 604.265 293.947 604.249 293.887C604.232 293.828 604.204 293.772 604.165 293.724C604.126 293.676 604.077 293.637 604.021 293.609C603.966 293.581 603.905 293.565 603.844 293.562C603.209 293.552 602.573 293.556 601.938 293.561C601.88 293.556 601.82 293.563 601.765 293.582C601.709 293.601 601.658 293.632 601.615 293.672C601.572 293.713 601.538 293.762 601.515 293.816C601.492 293.871 601.481 293.929 601.482 293.988C601.474 299.546 601.484 305.105 601.477 310.663C601.479 311.047 601.363 311.422 601.145 311.738C600.927 312.053 600.618 312.295 600.259 312.431C599.846 312.553 599.411 312.586 598.984 312.529C598.557 312.472 598.146 312.325 597.779 312.099C596.457 311.352 595.135 310.605 593.813 309.859C593.726 309.817 593.653 309.75 593.605 309.666C593.557 309.582 593.536 309.485 593.544 309.388C593.544 303.797 593.544 298.205 593.544 292.614C593.535 292.505 593.56 292.396 593.617 292.303C593.673 292.209 593.758 292.136 593.858 292.093C598.809 289.305 603.759 286.513 608.708 283.719C608.794 283.66 608.896 283.629 609 283.629C609.104 283.629 609.206 283.661 609.292 283.72C614.243 286.509 619.193 289.3 624.144 292.091C624.244 292.135 624.328 292.209 624.384 292.302C624.44 292.396 624.465 292.505 624.456 292.614C624.455 298.205 624.455 303.796 624.454 309.388C624.463 309.484 624.442 309.582 624.395 309.667C624.348 309.752 624.276 309.821 624.188 309.864C619.313 312.621 614.435 315.374 609.555 318.122C609.322 318.252 609.046 318.461 608.773 318.304C607.495 317.58 606.232 316.829 604.958 316.098C604.893 316.049 604.815 316.019 604.733 316.014C604.651 316.009 604.57 316.029 604.499 316.071C603.938 316.4 603.347 316.675 602.735 316.894C602.459 317.006 602.119 317.038 601.929 317.294C602.171 317.557 602.465 317.769 602.791 317.915C604.281 318.778 605.772 319.64 607.263 320.501C607.757 320.81 608.324 320.982 608.906 320.999C609.489 321.015 610.065 320.875 610.574 320.593C615.542 317.791 620.51 314.989 625.478 312.185C625.975 311.925 626.392 311.537 626.686 311.06C626.98 310.583 627.14 310.036 627.149 309.475V292.527C627.145 291.987 626.999 291.458 626.726 290.993C626.453 290.528 626.063 290.142 625.594 289.875H625.594Z" fill="#0015FF" fill-opacity="0.5"/>
<g filter="url(#filter5_d_1_40)">
<circle cx="85.8102" cy="300.81" r="35.8102" fill="#090E16"/>
</g>
<path fill-rule="evenodd" clip-rule="evenodd" d="M90.2644 286.521C92.6095 286.012 95.1243 286.078 97.3841 286.937C98.9586 287.55 100.34 288.574 101.384 289.903C101.881 290.534 101.944 291.38 101.977 292.157C101.999 294.003 101.631 295.829 101.161 297.607C100.263 300.896 98.8997 304.048 97.186 306.983C97.0177 307.272 96.8317 307.55 96.629 307.817L96.5655 307.491C96.7789 306.925 97.0908 306.392 97.2112 305.792C97.6401 304.099 97.2768 302.356 97.1225 300.652C96.9606 299.043 97.5033 297.479 97.4902 295.874C97.5526 295.089 97.2451 294.345 96.9452 293.64C95.8651 291.197 94.1449 289.023 91.9398 287.53C91.4025 287.157 90.8006 286.895 90.2644 286.521Z" fill="#0015FF" fill-opacity="0.5"/>
<path fill-rule="evenodd" clip-rule="evenodd" d="M83.7477 286.744C86.6334 286.373 89.6647 287.177 91.9573 289.001C93.8527 290.514 95.3497 292.565 96.1562 294.871C94.8157 294.824 93.2946 294.768 92.2101 295.71C91.2274 296.548 91.1005 297.979 91.3215 299.181C91.8358 302.039 93.5014 304.467 94.7325 307.036C95.0597 307.639 95.4996 308.165 95.9166 308.705C95.4187 308.96 94.8638 309.202 94.5815 309.721C94.0869 310.527 94.2598 311.511 94.1383 312.407C93.8538 314.918 93.5736 317.431 93.1687 319.925C92.9772 321.121 92.476 322.392 91.3576 322.987C90.2141 323.576 88.8845 323.945 87.5975 323.746C86.3752 323.528 85.6059 322.378 85.2601 321.255C85.0062 320.314 84.9799 319.332 84.9077 318.365C84.7945 316.027 84.7726 313.686 84.842 311.347C84.8935 310.433 84.4295 309.482 83.624 309.038C83.2334 308.817 82.777 308.786 82.3404 308.751C82.6829 307.033 83.7182 305.548 84.0727 303.832C84.5334 301.709 84.2795 299.499 83.8079 297.401C83.5781 296.355 82.7902 295.429 81.7418 295.175C80.1288 294.764 78.5015 295.403 77.0581 296.083C77.2398 293.713 77.8679 291.287 79.3037 289.362C79.8328 288.652 80.4983 288.055 81.2612 287.605C82.0241 287.156 82.8702 286.863 83.7477 286.744Z" fill="#0015FF" fill-opacity="0.5"/>
<path fill-rule="evenodd" clip-rule="evenodd" d="M71.4486 286.941C74.0181 286.441 76.6532 286.971 79.1198 287.731C78.0214 288.939 77.1932 290.367 76.6904 291.92C76.0174 294.002 75.7099 296.217 75.8697 298.403C75.9693 299.944 75.9162 301.49 75.711 303.02C75.4451 305.015 76.2363 307.068 77.7027 308.415C76.7047 309.595 75.6464 310.721 74.6791 311.928C74.2523 312.437 73.6756 313.042 72.9478 312.891C72.0965 312.641 71.5548 311.856 71.0809 311.151C69.8006 309.078 69.0269 306.739 68.32 304.415C67.5277 301.667 66.859 298.873 66.4749 296.033C66.2834 293.873 66.4027 291.555 67.497 289.631C68.3156 288.174 69.8443 287.246 71.4486 286.941ZM93.3898 296.908C93.0746 297.171 93.415 297.561 93.6853 297.684C94.3419 298.074 95.2392 297.529 95.2611 296.772C94.6702 296.494 93.926 296.521 93.3898 296.908ZM93.0407 296.552C93.9862 295.873 95.2228 296.024 96.316 296.092C96.269 297.62 95.8028 299.117 95.9549 300.655C96.0917 302.557 96.6377 304.601 95.7502 306.406C94.5607 304.013 93.0221 301.728 92.4859 299.063C92.3338 298.214 92.2955 297.14 93.0407 296.552Z" fill="#0015FF" fill-opacity="0.5"/>
<path fill-rule="evenodd" clip-rule="evenodd" d="M80.3464 296.952C80.1648 297.018 79.9744 297.143 80.0116 297.366C80.1418 298.126 81.1497 298.589 81.7844 298.115C82.0645 297.957 82.3589 297.517 82.0361 297.252C81.5765 296.874 80.9056 296.8 80.3464 296.952ZM77.0153 297.535C78.2005 296.761 79.587 296.154 81.0216 296.238C81.7658 296.27 82.4519 296.801 82.6303 297.541C83.2825 300.167 83.4839 303.087 82.2352 305.573C81.8053 306.534 81.4397 307.523 81.1409 308.532C79.0639 308.554 77.2966 306.779 76.9289 304.781C76.6772 303.651 77.0055 302.514 77.0438 301.381C77.1313 300.101 77.0405 298.817 77.0153 297.535ZM95.737 310.15C96.0445 309.921 96.4811 309.71 96.8379 309.96C98.3502 310.765 100.108 310.372 101.716 310.176C100.734 311.141 99.3723 311.594 98.034 311.741C97.1476 311.847 96.2273 311.879 95.3715 311.582C95.3759 311.093 95.3496 310.513 95.737 310.15ZM80.5084 312.023C81.3773 311.552 81.7209 310.511 82.5329 309.977C83.416 309.85 84.0628 311.177 83.3941 311.805C82.0897 313.591 79.4787 313.933 77.5931 312.961C78.5233 312.524 79.6111 312.558 80.5084 312.023Z" fill="#0015FF" fill-opacity="0.5"/>
<g filter="url(#filter6_f_1_40)">
<circle cx="352.624" cy="305.148" r="255.148" fill="#0015FF" fill-opacity="0.2"/>
</g>
<g filter="url(#filter7_i_1_40)">
<path fill-rule="evenodd" clip-rule="evenodd" d="M305.635 404.465C342.391 424.056 383.608 421.88 415.901 404.463V447.383L416.266 447.373V472.572H305.635V404.465Z" fill="#BB7D52"/>
<path fill-rule="evenodd" clip-rule="evenodd" d="M305.635 440.226C342.39 459.819 383.607 457.641 415.901 440.226V467.595L440.734 466.976L441.042 466.988C441.042 532.959 283.326 542.834 283.326 466.889L283.942 466.861L305.635 466.972V440.226Z" fill="#D08B5B"/>
<path fill-rule="evenodd" clip-rule="evenodd" d="M241.067 169.098C328.781 113.249 440.996 133.109 478.909 169.937C489.87 196.314 490.645 221.755 487.42 249.065C494.825 243.751 501.5 248 503.5 251.5C505 254.125 509.5 305.5 476.5 319.823C476.5 463.5 262.5 486 246.5 319.823C215 303.5 213.5 262 217 256.5C220.815 250.505 228.801 248.576 234.487 251.307L241.067 169.098Z" fill="#D08B5B"/>
<path fill-rule="evenodd" clip-rule="evenodd" d="M330.419 79.1642L323.164 83.8823L319.478 80.3149C313.72 74.677 310.956 75.7126 306.58 85.0331C303.931 90.7862 300.592 91.477 294.834 87.6794C292.53 86.0687 289.651 84.6877 288.5 84.6877C285.966 84.6877 283.547 88.5998 282.511 93.7779C281.705 98.0355 278.941 101.948 276.638 101.948C275.832 101.948 272.837 100.912 269.958 99.6462C265.582 97.6901 264.2 97.5749 261.781 98.6105C259.018 99.8764 258.787 100.567 258.787 108.161C258.787 113.685 257.981 117.942 256.484 121.164C254.296 125.997 254.18 126.112 248.768 126.112C239.785 126.112 235.524 130.599 239.9 135.548C242.204 137.964 240.706 140.496 236.215 141.531C227.923 143.602 225.505 148.896 229.996 154.534C233.106 158.561 232.991 159.137 228.038 161.438C222.856 163.969 222.05 166.847 225.39 170.413C227.923 173.175 227.923 173.29 226.541 188.479C225.16 203.208 230.388 249.742 232 254C232.5 261.5 236.446 249.236 237.367 229.905C238.058 213.335 240.246 199.297 242.78 194.464C245.659 189.056 268.461 177.434 291.034 169.84C319.019 160.519 350.458 156.952 385.929 159.368C416.332 161.324 433.759 167.266 467.387 185.332C480 193.5 477.5 192 478 193.5C478.5 195 482.822 253.252 487.5 249C490.5 253 489.576 162.59 484.969 153.499C481.515 146.826 481.285 144.294 483.242 137.39C484.624 132.557 484.624 131.521 482.897 128.99C481.285 126.573 480.132 126.113 475.526 126.113C472.532 126.229 467.925 126.689 465.277 127.149C460.555 128.07 460.44 128.07 461.016 125.078C463.319 113.801 460.555 111.269 449.384 114.146C445.814 115.067 442.474 115.642 442.244 115.297C441.899 114.952 442.244 111.5 443.05 107.703C444.431 101.489 444.317 100.453 442.704 98.727C440.977 97.1163 439.941 97.1163 433.261 98.3822C422.551 100.569 418.52 99.533 414.604 93.5489C410.574 87.6807 406.888 85.6094 403.088 87.105C401.015 87.9103 398.827 87.5655 394.681 85.7246C390.304 83.8836 387.771 83.4231 383.855 83.9981C379.825 84.689 377.636 84.2284 373.836 82.2723C369.921 80.3162 367.732 79.9708 363.011 80.5459C357.944 81.1216 356.101 80.661 350.228 77.7844C346.543 75.9435 342.166 74.4473 340.554 74.3322C338.942 74.3322 334.45 76.5186 330.42 79.1655L330.419 79.1642Z" fill="#1C1C1C"/>
<path fill-rule="evenodd" clip-rule="evenodd" d="M284.881 253.8C279.822 255.675 274 260.4 274 262.65C274 264.375 275.527 264.375 278.486 262.5C286.217 257.7 302.633 257.7 311.032 262.425C312.655 263.25 314.373 264 314.946 264C316.95 264 315.995 261.3 312.942 258.45C308.933 254.55 301.775 252 294.998 252C291.466 252 288.126 252.6 284.881 253.8Z" fill="#1C1C1C"/>
<path fill-rule="evenodd" clip-rule="evenodd" d="M418.881 253.8C413.822 255.675 408 260.4 408 262.65C408 264.375 409.527 264.375 412.486 262.5C420.217 257.7 436.633 257.7 445.032 262.425C446.655 263.25 448.373 264 448.946 264C450.95 264 449.995 261.3 446.942 258.45C442.933 254.55 435.775 252 428.998 252C425.466 252 422.126 252.6 418.881 253.8Z" fill="#1C1C1C"/>
<path fill-rule="evenodd" clip-rule="evenodd" d="M276.69 224.7C267.536 227.513 257 234.6 257 237.976C257 240.563 259.764 240.563 265.118 237.75C279.107 230.55 308.813 230.55 324.011 237.638C326.946 238.876 330.055 240 331.092 240C334.719 240 332.992 235.95 327.466 231.675C320.212 225.825 307.259 222 294.996 222C288.606 222 282.561 222.9 276.69 224.7V224.7Z" fill="#1C1C1C"/>
<path fill-rule="evenodd" clip-rule="evenodd" d="M410.69 224.7C401.536 227.513 391 234.6 391 237.976C391 240.563 393.764 240.563 399.118 237.75C413.107 230.55 442.813 230.55 458.011 237.638C460.946 238.876 464.055 240 465.092 240C468.719 240 466.992 235.95 461.466 231.675C454.212 225.825 441.259 222 428.996 222C422.606 222 416.561 222.9 410.69 224.7V224.7Z" fill="#1C1C1C"/>
<path fill-rule="evenodd" clip-rule="evenodd" d="M335.256 309.773C336.523 314.721 340.208 318.634 346.657 321.741C351.84 324.272 354.488 324.848 362.089 324.848C369.689 324.848 372.339 324.272 377.521 321.741C383.97 318.634 387.655 314.722 388.922 309.773L389.498 307.242H362.089H334.68L335.256 309.773Z" fill="#AF754C"/>
<path fill-rule="evenodd" clip-rule="evenodd" d="M329.958 356.03C331.455 365.581 338.711 375.362 347.694 379.965C354.258 383.417 366.35 384.107 373.26 381.461C383.625 377.433 392.608 366.617 394.22 356.03H329.958Z" fill="white"/>
<path fill-rule="evenodd" clip-rule="evenodd" d="M328.974 332.044C327.22 332.682 322.915 334.752 319.407 336.744C315.9 338.655 311.914 340.727 310.558 341.284C307.768 342.399 299.557 342.718 296.926 341.842C295.412 341.363 295.092 341.522 295.092 343.036C295.092 345.505 300.275 350.125 305.935 352.834C313.269 356.339 322.835 355.622 334.794 350.604C339.41 349.244 346.087 345.603 351.455 343.753C363.283 339.575 369.325 341.973 379.996 346.542L389.323 350.604C401.282 355.622 410.848 356.339 418.183 352.834C423.923 350.125 429.264 345.267 428.866 343.195C428.706 342.399 427.989 341.922 427.351 342.081C426.713 342.24 423.763 342.319 420.734 342.319C415.95 342.24 414.516 341.842 408.776 338.895C393.23 330.77 395.462 331.407 383.982 331.407C374.815 331.407 372.98 331.725 367.879 333.557L362.058 335.628L356.319 333.557C349.304 331.088 334.395 330.292 328.974 332.044Z" fill="#1C1C1C" fill-opacity="0.9"/>
<path d="M402.721 578.001L410.116 571.994C411.83 570.602 414.349 570.861 415.742 572.573C417.136 574.285 416.876 576.802 415.162 578.194L411.583 581.102L437.568 602.978C439.281 604.37 439.541 606.887 438.148 608.599C437.357 609.57 436.205 610.074 435.043 610.074C434.156 610.074 433.263 609.781 432.522 609.178L402.721 584.202C401.787 583.443 401.245 582.305 401.245 581.102C401.245 579.899 401.787 578.76 402.721 578.001Z" fill="#0015FF"/>
<path d="M435.56 541.292C437.683 541.309 439.391 543.043 439.374 545.165L439.044 606.263C439.027 608.384 437.291 610.09 435.168 610.073C434.63 610.069 434.119 609.955 433.656 609.752C432.291 609.154 431.341 607.786 431.354 606.201L431.685 545.104C431.702 542.982 433.437 541.275 435.56 541.292Z" fill="#0015FF"/>
<path d="M452.437 583.321L455.168 581.102L445.441 573.198C443.727 571.806 443.468 569.29 444.861 567.577C446.254 565.865 448.773 565.605 450.487 566.998L464.03 578.001C464.964 578.76 465.506 579.899 465.506 581.102C465.506 582.305 464.964 583.443 464.03 584.202L457.483 589.521C456.742 590.123 455.849 590.417 454.963 590.417C453.8 590.417 452.647 589.913 451.857 588.942C450.464 587.23 450.724 584.713 452.437 583.321Z" fill="#C83267"/>
<path fill-rule="evenodd" clip-rule="evenodd" d="M282.625 466.93C248.652 470.236 217.789 482.889 192.107 503.976C170.008 522.046 163.843 536.407 147.663 556.859C180.629 591.033 224.958 619.987 273.298 635.98C305.543 646.58 327.54 650 362.089 650C396.639 650 418.634 646.58 450.881 635.98C499.649 620.396 540.728 594.859 577.759 558.205C552.396 525.495 541.957 504.057 501.091 483.914C483.932 475.365 463.778 469.21 448.346 467.614L441.079 466.959L440.733 466.952L439.939 472.402C436.485 498.391 403.895 517.542 363.241 517.542C322.589 517.542 290.573 498.619 286.426 472.288C285.621 467.044 285.274 466.588 282.626 466.93H282.625Z" fill="#090E16"/>
<path fill-rule="evenodd" clip-rule="evenodd" d="M303.698 420.613L303.218 420.462C301.905 420.049 308.355 417.106 310.641 416.013C317.36 412.803 326.123 413.459 337.077 418.056C341.306 419.301 347.422 422.637 352.34 424.331C363.174 428.159 368.709 425.962 378.484 421.778L387.029 418.056C397.983 413.459 406.746 412.803 413.465 416.013C415.718 417.076 417.943 418.457 419.637 419.932L420.147 420.376C400.539 435.32 337.686 442.75 303.698 420.613Z" fill="#1C1C1C" fill-opacity="0.9"/>
</g>
<defs>
<filter id="filter0_d_1_40" x="487" y="352" width="171.621" height="171.62" filterUnits="userSpaceOnUse" color-interpolation-filters="sRGB">
<feFlood flood-opacity="0" result="BackgroundImageFix"/>
<feColorMatrix in="SourceAlpha" type="matrix" values="0 0 0 0 0 0 0 0 0 0 0 0 0 0 0 0 0 0 127 0" result="hardAlpha"/>
<feOffset dy="4"/>
<feGaussianBlur stdDeviation="25"/>
<feComposite in2="hardAlpha" operator="out"/>
<feColorMatrix type="matrix" values="0 0 0 0 0 0 0 0 0 0 0 0 0 0 0 0 0 0 0.5 0"/>
<feBlend mode="normal" in2="BackgroundImageFix" result="effect1_dropShadow_1_40"/>
<feBlend mode="normal" in="SourceGraphic" in2="effect1_dropShadow_1_40" result="shape"/>
</filter>
<filter id="filter1_d_1_40" x="47" y="86" width="171.62" height="171.62" filterUnits="userSpaceOnUse" color-interpolation-filters="sRGB">
<feFlood flood-opacity="0" result="BackgroundImageFix"/>
<feColorMatrix in="SourceAlpha" type="matrix" values="0 0 0 0 0 0 0 0 0 0 0 0 0 0 0 0 0 0 127 0" result="hardAlpha"/>
<feOffset dy="4"/>
<feGaussianBlur stdDeviation="25"/>
<feComposite in2="hardAlpha" operator="out"/>
<feColorMatrix type="matrix" values="0 0 0 0 0 0 0 0 0 0 0 0 0 0 0 0 0 0 0.5 0"/>
<feBlend mode="normal" in2="BackgroundImageFix" result="effect1_dropShadow_1_40"/>
<feBlend mode="normal" in="SourceGraphic" in2="effect1_dropShadow_1_40" result="shape"/>
</filter>
<filter id="filter2_d_1_40" x="485" y="86" width="171.621" height="171.62" filterUnits="userSpaceOnUse" color-interpolation-filters="sRGB">
<feFlood flood-opacity="0" result="BackgroundImageFix"/>
<feColorMatrix in="SourceAlpha" type="matrix" values="0 0 0 0 0 0 0 0 0 0 0 0 0 0 0 0 0 0 127 0" result="hardAlpha"/>
<feOffset dy="4"/>
<feGaussianBlur stdDeviation="25"/>
<feComposite in2="hardAlpha" operator="out"/>
<feColorMatrix type="matrix" values="0 0 0 0 0 0 0 0 0 0 0 0 0 0 0 0 0 0 0.5 0"/>
<feBlend mode="normal" in2="BackgroundImageFix" result="effect1_dropShadow_1_40"/>
<feBlend mode="normal" in="SourceGraphic" in2="effect1_dropShadow_1_40" result="shape"/>
</filter>
<filter id="filter3_d_1_40" x="43" y="353" width="171.62" height="171.62" filterUnits="userSpaceOnUse" color-interpolation-filters="sRGB">
<feFlood flood-opacity="0" result="BackgroundImageFix"/>
<feColorMatrix in="SourceAlpha" type="matrix" values="0 0 0 0 0 0 0 0 0 0 0 0 0 0 0 0 0 0 127 0" result="hardAlpha"/>
<feOffset dy="4"/>
<feGaussianBlur stdDeviation="25"/>
<feComposite in2="hardAlpha" operator="out"/>
<feColorMatrix type="matrix" values="0 0 0 0 0 0 0 0 0 0 0 0 0 0 0 0 0 0 0.5 0"/>
<feBlend mode="normal" in2="BackgroundImageFix" result="effect1_dropShadow_1_40"/>
<feBlend mode="normal" in="SourceGraphic" in2="effect1_dropShadow_1_40" result="shape"/>
</filter>
<filter id="filter4_d_1_40" x="523" y="219" width="171.621" height="171.62" filterUnits="userSpaceOnUse" color-interpolation-filters="sRGB">
<feFlood flood-opacity="0" result="BackgroundImageFix"/>
<feColorMatrix in="SourceAlpha" type="matrix" values="0 0 0 0 0 0 0 0 0 0 0 0 0 0 0 0 0 0 127 0" result="hardAlpha"/>
<feOffset dy="4"/>
<feGaussianBlur stdDeviation="25"/>
<feComposite in2="hardAlpha" operator="out"/>
<feColorMatrix type="matrix" values="0 0 0 0 0 0 0 0 0 0 0 0 0 0 0 0 0 0 0.5 0"/>
<feBlend mode="normal" in2="BackgroundImageFix" result="effect1_dropShadow_1_40"/>
<feBlend mode="normal" in="SourceGraphic" in2="effect1_dropShadow_1_40" result="shape"/>
</filter>
<filter id="filter5_d_1_40" x="0" y="219" width="171.62" height="171.62" filterUnits="userSpaceOnUse" color-interpolation-filters="sRGB">
<feFlood flood-opacity="0" result="BackgroundImageFix"/>
<feColorMatrix in="SourceAlpha" type="matrix" values="0 0 0 0 0 0 0 0 0 0 0 0 0 0 0 0 0 0 127 0" result="hardAlpha"/>
<feOffset dy="4"/>
<feGaussianBlur stdDeviation="25"/>
<feComposite in2="hardAlpha" operator="out"/>
<feColorMatrix type="matrix" values="0 0 0 0 0 0 0 0 0 0 0 0 0 0 0 0 0 0 0.5 0"/>
<feBlend mode="normal" in2="BackgroundImageFix" result="effect1_dropShadow_1_40"/>
<feBlend mode="normal" in="SourceGraphic" in2="effect1_dropShadow_1_40" result="shape"/>
</filter>
<filter id="filter6_f_1_40" x="47.4763" y="0" width="610.296" height="610.296" filterUnits="userSpaceOnUse" color-interpolation-filters="sRGB">
<feFlood flood-opacity="0" result="BackgroundImageFix"/>
<feBlend mode="normal" in="SourceGraphic" in2="BackgroundImageFix" result="shape"/>
<feGaussianBlur stdDeviation="25" result="effect1_foregroundBlur_1_40"/>
</filter>
<filter id="filter7_i_1_40" x="147.663" y="74.3322" width="430.095" height="579.668" filterUnits="userSpaceOnUse" color-interpolation-filters="sRGB">
<feFlood flood-opacity="0" result="BackgroundImageFix"/>
<feBlend mode="normal" in="SourceGraphic" in2="BackgroundImageFix" result="shape"/>
<feColorMatrix in="SourceAlpha" type="matrix" values="0 0 0 0 0 0 0 0 0 0 0 0 0 0 0 0 0 0 127 0" result="hardAlpha"/>
<feOffset dy="4"/>
<feGaussianBlur stdDeviation="2"/>
<feComposite in2="hardAlpha" operator="arithmetic" k2="-1" k3="1"/>
<feColorMatrix type="matrix" values="0 0 0 0 0 0 0 0 0 0 0 0 0 0 0 0 0 0 0.25 0"/>
<feBlend mode="normal" in2="shape" result="effect1_innerShadow_1_40"/>
</filter>
<clipPath id="clip0_1_40">
<rect width="35.8102" height="35.8102" fill="white" transform="translate(554.905 415.905)"/>
</clipPath>
</defs>
</svg>
